<svg id="Componente_2_1" data-name="Componente 2 – 1" xmlns="http://www.w3.org/2000/svg" width="120" height="120" viewBox="0 0 120 120">
  <g id="Grupo_4" data-name="Grupo 4" transform="translate(-213 367)">
    <g id="Grupo_3" data-name="Grupo 3">
      <g id="Componente_1_1" data-name="Componente 1 – 1" transform="translate(213 -367)">
        <path id="Subtração_1" data-name="Subtração 1" d="M60,120A60.016,60.016,0,0,1,36.646,4.715a60.015,60.015,0,0,1,46.709,110.57A59.625,59.625,0,0,1,60,120ZM37.985,78.735v17.6h11v-17.6Zm39.543-31.89V96.327h11V46.845ZM57.759,67.735V96.327h11V67.735ZM32,60.055h0a25.189,25.189,0,0,0,12.163,3.1c13.146,0,25.016-9.945,29.538-24.745l5.888,1.5L73.639,24,59.319,34.519,65.875,36.4A43.439,43.439,0,0,1,60.32,47.429a33.766,33.766,0,0,1-7.244,7.518,27.291,27.291,0,0,1-16.17,5.665A21.3,21.3,0,0,1,32,60.055Z" fill="#ff5600"/>
      </g>
    </g>
  </g>
</svg>
