<svg id="Componente_3_1" data-name="Componente 3 – 1" xmlns="http://www.w3.org/2000/svg" width="120" height="120" viewBox="0 0 120 120">
  <g id="Grupo_6" data-name="Grupo 6" transform="translate(-296 259)">
    <g id="Grupo_5" data-name="Grupo 5">
      <path id="Subtração_2" data-name="Subtração 2" d="M60,120A60.016,60.016,0,0,1,36.646,4.715a60.015,60.015,0,0,1,46.709,110.57A59.625,59.625,0,0,1,60,120ZM47.5,92.978h0a.717.717,0,0,1,.5.208.708.708,0,0,1,.209.5V107l31.112-.643.162-27.075a.709.709,0,0,1,.221-.544,27.733,27.733,0,0,0,3.219-37.013,60.1,60.1,0,0,0-16.088-6.7A64.852,64.852,0,0,0,50.994,33.06l-.61,0h-.365l-.185.005-.272.006h-.11l-.168.006a27.848,27.848,0,0,0-16.39,25.361c0,.892.04,1.8.128,2.7a26.128,26.128,0,0,0,.388,2.647.685.685,0,0,1-.058.452L28,75.449a17.554,17.554,0,0,0,2.346,1.4,15.118,15.118,0,0,0,2.681,1.008.712.712,0,0,1,.521.689c0,7.164.371,11.391,2.327,13.209,1.116,1.04,2.849,1.464,5.981,1.464,1.474,0,3.151-.086,5.551-.236Zm3.82-61.336h0A66.4,66.4,0,0,1,66.787,33.47a58.69,58.69,0,0,1,15.967,6.5.663.663,0,0,1,.214-.035h.023c.339-1.423.591-2.811.8-4l.033-.181c.273-1.474.556-3,.945-4.539a46.7,46.7,0,0,0-15.924-7.871,43.127,43.127,0,0,0-16.6-.857l-1.256,4.7-.006.017v.017L49.8,31.652h.162l.11-.006h.556C50.856,31.643,51.09,31.642,51.32,31.642Zm7.142-11.063h0a42.552,42.552,0,0,1,10.47,1.309l.377.1.533.145a46.084,46.084,0,0,1,16.141,8.206.429.429,0,0,1,.132.116l.006.006.011.012.041.052v.006l.006.005.005.006a.619.619,0,0,1,.076.168h.006a.662.662,0,0,1,.006.4c-.222.837-.367,1.618-.507,2.373l-.008.042-.151.823,6.319-4.026L71.778,14.663,46.5,18.15,50.1,25.042l.895-3.379L51,21.653,51,21.641v-.013l.006-.005v-.011l.005-.006v-.012h.006v-.018l.006-.006v-.006l.005-.005v-.006l.006-.012.006-.006v-.006l.005-.011.006-.006v-.005l.006-.006v-.006l.005-.005.006-.006v-.006l.006-.005v-.007l.005-.006.006-.005v-.006l.006-.006.005-.005.006-.005h.006l.005-.012.006-.013.011-.012.006-.006.006-.011h.006l.006-.012.006-.006.005-.006.006-.005h.006l.005-.006v-.006l.006-.005h.006l.005-.006.006-.006.006-.005V21.3h.006l.006-.005.006-.006.005-.006h.006l.006-.005.012-.013.011-.005.011-.006.012-.006.005-.012h.006l.006-.006h.005l.006-.005h.005l.006-.006h.006l.005-.006h.006l.006-.005h.005l.006-.006h.006l.005-.006.012-.005h.005l.012-.006.012-.006h.011l.006-.005h.011l.006-.006h.011l.006-.006H51.5l.005-.005h.011l.006-.006h.023l.005-.006h.023l.011-.005h.035l.2-.035A42.636,42.636,0,0,1,58.462,20.579ZM74.343,13a.709.709,0,0,0-.44,1.265L91.081,27.819a.705.705,0,0,0,.438.154c.024,0,.051,0,.081,0a.692.692,0,0,0,.471-.266.709.709,0,0,0-.116-1L74.783,13.153A.7.7,0,0,0,74.343,13ZM53.228,104.629a.71.71,0,0,1-.029-1.419l20.218-.4a.71.71,0,0,1,.029,1.418Zm0-4.611A.71.71,0,0,1,53.2,98.6l20.218-.4h.008a.713.713,0,0,1,.709.7.7.7,0,0,1-.689.724Zm4.929-16.5a.713.713,0,0,1-.712-.712v-8.58L55.87,75.443a.716.716,0,0,1-1-.127.705.705,0,0,1,.127-1l2.676-2.068a.709.709,0,0,1,.957,0l2.684,2.069a.71.71,0,1,1-.869,1.122l-1.576-1.216v8.583A.713.713,0,0,1,58.157,83.519ZM47.834,72.931h0a2.983,2.983,0,0,1-2.2-.786c-1.25-1.252-1-3.751.706-7.037A34.192,34.192,0,0,1,50,59.627a34.49,34.49,0,0,1-3.656-5.49c-1.7-3.284-1.956-5.783-.706-7.036a2.972,2.972,0,0,1,2.2-.785,11.22,11.22,0,0,1,4.847,1.491,34.937,34.937,0,0,1,5.485,3.648A34.884,34.884,0,0,1,63.645,47.8a11.215,11.215,0,0,1,4.843-1.49,2.978,2.978,0,0,1,2.194.782l.046.053c1.2,1.264.932,3.746-.747,6.99a35.3,35.3,0,0,1-3.655,5.485,34.934,34.934,0,0,1,3.655,5.486c1.7,3.281,1.952,5.778.7,7.031a2.994,2.994,0,0,1-2.2.784,11.215,11.215,0,0,1-4.833-1.479A35.373,35.373,0,0,1,58.16,67.79a35.375,35.375,0,0,1-5.485,3.656A11.248,11.248,0,0,1,47.834,72.931Zm11.449-6.064h0a32.678,32.678,0,0,0,5.01,3.319,10.065,10.065,0,0,0,4.159,1.363,1.663,1.663,0,0,0,1.221-.407c.777-.782.437-2.693-.957-5.38a32.6,32.6,0,0,0-3.318-5.01c-.991,1.162-1.952,2.2-2.937,3.181-1.109,1.1-2.148,2.063-3.177,2.935Zm-8.368-6.125h0A33.068,33.068,0,0,0,47.6,65.763c-1.4,2.688-1.739,4.6-.96,5.375a1.666,1.666,0,0,0,1.223.408,10.085,10.085,0,0,0,4.156-1.363,32.624,32.624,0,0,0,5.016-3.319c-1.067-.9-2.139-1.888-3.184-2.932s-2.034-2.12-2.938-3.189Zm3.944,2.181c1.041,1.047,2.151,2.068,3.3,3.035,1.113-.936,2.224-1.957,3.3-3.035s2.109-2.2,3.029-3.3c-.961-1.142-1.98-2.252-3.029-3.3-1.105-1.1-2.216-2.122-3.3-3.028-1.1.915-2.206,1.934-3.3,3.028s-2.106,2.2-3.029,3.3c.947,1.13,1.966,2.241,3.031,3.3h0Zm-7-15.221a1.66,1.66,0,0,0-1.219.407c-.777.777-.436,2.687.96,5.379A32.867,32.867,0,0,0,50.914,58.5c.907-1.069,1.9-2.139,2.937-3.181s2.115-2.033,3.188-2.942a31.952,31.952,0,0,0-5.018-3.312A10.094,10.094,0,0,0,47.86,47.7Zm11.423,4.679h0c1.063.9,2.132,1.89,3.179,2.936,1.031,1.03,2.019,2.1,2.937,3.185a32.9,32.9,0,0,0,3.318-5.016c1.38-2.656,1.73-4.556.985-5.35l-.029-.029a1.652,1.652,0,0,0-1.215-.406,10.125,10.125,0,0,0-4.165,1.367,32.166,32.166,0,0,0-5.008,3.313ZM43.547,64.643a2.262,2.262,0,0,1-1.61-.666l-.046-.052a2.261,2.261,0,0,1-.617-1.552l0,0a2.275,2.275,0,1,1,2.276,2.266Zm-.019-3.114a.847.847,0,0,0-.833.847.837.837,0,0,0,.214.567l.035.029a.844.844,0,0,0,.6.249.832.832,0,0,0,.6-.249.844.844,0,0,0,.249-.6.853.853,0,0,0-.839-.846h-.02Zm14.643,2.236a4.125,4.125,0,0,1-.009-8.25l0,0h.012a4.123,4.123,0,0,1,0,8.247Zm-.033-6.834a2.689,2.689,0,1,0,1.922.8l0,0A2.679,2.679,0,0,0,58.139,56.931ZM72.933,58.74a1.781,1.781,0,1,1,.348-.034A1.774,1.774,0,0,1,72.933,58.74Zm-.028-2.1a.355.355,0,0,0-.215.072.351.351,0,0,0-.1.249.336.336,0,0,0,.1.248.357.357,0,0,0,.248.1h.013a.349.349,0,0,0,.239-.094.365.365,0,0,0-.033-.471A.354.354,0,0,0,72.9,56.643Zm-14.75-9.564a.706.706,0,0,1-.478-.185L55,44.827a.711.711,0,1,1,.869-1.124l1.576,1.22V36.34a.712.712,0,1,1,1.424,0v8.583l1.576-1.22a.71.71,0,0,1,.869,1.124l-2.681,2.067A.709.709,0,0,1,58.154,47.079Z" transform="translate(296 -259)" fill="#ff5600"/>
    </g>
  </g>
</svg>
