<svg id="Componente_4_1" data-name="Componente 4 – 1" xmlns="http://www.w3.org/2000/svg" width="120" height="120" viewBox="0 0 120 120">
  <g id="Grupo_8" data-name="Grupo 8" transform="translate(-476 272)">
    <g id="Grupo_7" data-name="Grupo 7">
      <path id="Subtração_3" data-name="Subtração 3" d="M60,120A60.016,60.016,0,0,1,36.646,4.715a60.015,60.015,0,0,1,46.709,110.57A59.625,59.625,0,0,1,60,120Zm.156-87A38.179,38.179,0,0,0,24.687,85.249l.477,1.2H95.147l.477-1.2A38.18,38.18,0,0,0,60.156,33ZM54.433,82.635H50.611a9.545,9.545,0,0,1,13.363-8.744L76.187,58.619a1.915,1.915,0,1,1,3.055,2.31h0L67.1,76.086a9.513,9.513,0,0,1,2.6,6.547H65.887a5.727,5.727,0,1,0-11.454,0ZM88.79,73.089h0a1.911,1.911,0,0,1-1.909-1.909A26.726,26.726,0,0,0,35.662,60.49a26.154,26.154,0,0,0-2.234,10.69,1.909,1.909,0,1,1-3.818,0,29.984,29.984,0,0,1,2.558-12.218A30.542,30.542,0,0,1,90.7,71.18a1.91,1.91,0,0,1-1.91,1.909Z" transform="translate(476 -272)" fill="#ff5600"/>
    </g>
  </g>
</svg>
